<?xml version="1.0" encoding="UTF-8"?>
<svg width="1024px" height="1024px" viewBox="0 0 1024 1024" version="1.1" xmlns="http://www.w3.org/2000/svg" xmlns:xlink="http://www.w3.org/1999/xlink">
    <title>2 - Layer</title>
    <g id="Poof" stroke="none" stroke-width="1" fill="none" fill-rule="evenodd">
        <g id="replicate-prediction-0amb6ehdenrmy0cwf7mbnbxxpw" transform="translate(-25, -66)">
            <path d="M558.726475,164.165833 C578.171748,163.556941 597.569824,166.609479 616.081641,173.190703 C643.964736,183.003958 668.591221,199.663348 686.53667,225.243721 C688.560908,228.131194 690.322939,230.484229 691.854229,233.767049 C703.024248,226.36512 715.431885,221.50149 728.337715,219.464156 C783.757793,210.492961 845.874639,246.242689 854.422588,310.948532 C873.542725,311.274621 890.376416,318.809871 906.40251,329.876692 C932.156484,347.919507 950.432314,376.381005 957.286406,409.120904 C963.558398,439.230161 961.602334,474.192082 946.347129,500.828637 C956.07501,509.046076 964.670156,520.456878 970.485908,532.292461 C993.491953,579.133828 981.037119,633.478125 937.594658,658.65334 C943.504805,669.163213 947.668652,680.746582 949.892168,692.860928 C960.752783,754.910156 930.478359,816.243721 871.880332,828.09835 C870.233672,839.670176 868.324805,849.5221 864.082295,860.44752 C840.410244,921.382852 775.59791,956.075244 717.094277,945.928975 C710.523369,944.786221 703.915752,943.34335 697.853525,940.463379 C670.625947,981.077314 610.92665,990.888838 569.9804,972.927979 C566.346211,971.335049 562.282002,969.326572 559.056855,966.885234 C546.114316,976.362012 542.12877,978.970723 527.696895,985.555986 C476.385601,1004.88469 420.076641,998.259023 377.26977,959.942139 C336.694805,965.70208 292.488797,937.912383 274.649279,898.04874 C273.071317,894.522363 271.562054,890.995986 270.559374,887.215664 C268.76378,887.23875 266.968711,887.23875 265.173642,887.221436 C239.670337,886.892461 215.614939,873.375645 198.042349,853.464023 C176.49837,829.293047 164.755166,796.562959 165.486199,762.713203 C156.02577,758.81168 147.826556,752.543848 140.2687,745.167891 C98.4844365,704.380811 89.1713672,629.917119 127.913505,582.204258 C119.437925,572.54741 110.713248,560.760308 106.530521,548.011099 C88.7586533,493.842255 118.544848,431.408068 166.005894,410.963162 C159.434985,389.387622 162.572555,356.368383 169.675743,335.250521 C182.02045,298.550807 205.87657,272.951388 237.772482,256.694848 C266.201493,242.362521 298.591928,240.8123 328.044595,252.374892 C344.862554,206.996019 388.95319,185.37777 432.058978,193.184856 C440.609549,194.733923 455.620901,199.904019 462.623402,205.580273 C492.007371,177.838479 520.128551,166.467501 558.726475,164.165833 Z" id="Path" fill="#050505"></path>
            <path d="M445.096436,259.518258 C447.147943,255.295263 448.81558,250.529748 451.109892,246.438343 C494.689225,168.720111 612.505137,165.466726 667.615811,228.945551 C671.947471,233.937885 675.539707,239.754964 679.06377,245.372927 C654.5579,241.357128 619.967549,250.951644 606.117773,275.452749 C608.797529,274.184177 611.954502,272.149151 614.487422,270.529096 C633.717686,258.227754 654.463506,255.363366 676.46792,258.667541 C706.013408,263.325706 732.685107,280.650548 750.67251,306.864053 C763.950674,326.345698 771.617607,346.800416 772.561553,371.460237 C772.797539,377.648423 771.376377,386.546897 770.568779,392.82685 C761.748135,395.080614 755.806523,396.767619 748.632539,402.999668 C754.39585,403.120292 760.599668,401.420013 766.462617,401.078341 C818.489736,398.047157 863.856797,440.717473 880.900254,492.43055 C891.121084,518.133855 887.3925,561.978091 873.348691,585.292002 C869.546689,591.611777 860.149189,606.103975 854.165625,609.728467 C848.926729,614.893945 842.675713,618.310664 836.508604,621.877441 C833.356875,623.707002 823.906934,625.086387 821.950869,627.366123 L821.987578,628.439619 C830.325762,633.685898 856.724766,623.406885 863.704717,616.440703 C868.088818,628.428076 868.676162,631.867881 867.171094,644.755605 C866.756807,647.410488 866.410693,650.244287 865.687002,652.795283 C856.583174,695.013691 817.655918,729.68877 778.015459,729.215508 C780.847295,722.151211 782.687988,711.266191 783.207158,703.549717 L783.427412,700.64666 C783.631934,680.423379 779.095752,659.848037 765.83332,645.049951 C764.087021,643.122275 762.241084,641.315801 760.300752,639.630527 C762.220107,646.002246 764.558994,651.854531 766.446885,658.162764 C771.649072,675.569561 771.476016,691.435371 767.574375,709.04417 C750.273955,781.355098 661.149785,824.71626 605.026992,775.88373 C603.889014,774.891035 603.789375,774.983379 602.609443,775.652871 C606.804756,788.321279 619.684365,799.333271 630.466318,804.856582 C632.548242,805.906992 634.63541,806.945859 636.727822,807.973184 C635.810098,811.61499 634.63541,816.832412 633.329619,820.162559 C633.261445,820.860908 633.030703,821.518857 632.768496,822.165264 C598.141436,906.394307 462.447724,900.559336 431.744854,815.556914 C427.677498,804.729609 427.266357,795.720322 427.478221,784.367813 C432.765363,782.226592 457.967654,769.494697 456.215063,762.153369 C454.521729,761.951367 444.4792,767.411191 441.417146,768.3404 C414.960981,776.351221 392.106492,772.051465 371.75136,751.799326 C364.038278,744.919717 357.807715,733.088174 354.859983,722.832246 C353.958516,719.692559 353.569925,716.529785 351.794259,714.17502 C347.529199,723.340137 350.646316,734.150127 352.751314,743.569189 C351.356373,743.309473 349.939931,743.020898 348.57593,742.570723 C312.264976,730.710322 286.132374,688.428428 291.749897,646.798711 C292.522359,641.073398 294.801463,634.199561 296.298665,628.52042 C290.512805,633.668584 286.772684,642.631699 284.199384,650.076914 L281.866266,660.927305 C250.014404,653.938037 227.410585,619.949766 227.117962,584.859141 C225.346491,542.625149 251.079489,500.845374 285.690817,483.696563 C287.955237,482.574586 295.674612,479.453944 296.668901,477.856397 L296.199026,477.067436 C291.843243,475.346379 277.111403,479.239245 272.638151,481.042257 C266.056755,465.867293 266.986017,449.584204 272.410031,434.181267 C286.703461,393.592726 326.113702,367.467524 365.220308,370.210134 C367.897441,370.398284 375.231896,372.458704 377.2876,371.45562 C377.439155,368.861915 370.961068,366.467326 368.954136,365.609684 C349.862842,357.45169 326.96168,360.934204 308.615054,369.884045 C303.624729,372.318457 299.027191,375.237097 294.385603,378.356007 C293.175255,378.831 288.750249,383.736762 287.661565,383.377775 C282.940266,381.821206 279.604468,380.883917 274.676549,380.513388 C274.434794,379.679408 274.204576,378.841389 273.985896,377.999906 C268.994522,358.70872 272.499182,338.425992 281.348669,321.181374 C293.440084,297.998476 313.335829,280.983563 336.73466,273.814225 C359.088334,267.147583 379.325473,268.289183 399.451436,280.940854 C389.444042,288.041511 382.408503,296.823979 377.160167,308.624933 C375.718553,311.866198 371.855194,321.385685 372.881997,324.711214 L373.659703,324.992862 C376.176366,322.499581 379.632255,315.930478 381.990021,312.654583 C408.081193,276.391192 456.508734,262.779146 495.544544,279.256734 C504.64103,283.096503 512.228777,289.495348 519.790828,295.901695 C497.488547,300.357281 468.987167,322.655988 466.096072,350.801786 C466.023179,351.510524 466.505115,351.610948 467.002784,351.949157 C468.631614,351.156155 478.582896,337.373273 481.180318,334.413656 C484.448467,330.659883 488.031264,327.253553 491.880463,324.240838 C517.894022,303.903858 555.894639,301.412886 584.947178,314.845438 C588.943213,316.691736 593.227676,319.767938 597.496406,320.571328 L597.847764,320.016688 C595.419727,316.245601 588.366357,310.523751 584.894736,307.913309 C571.107891,297.5483 545.558438,289.934558 529.044639,293.888602 L528.389121,294.053666 C508.78495,263.061949 477.290739,256.610007 445.096436,259.518258 Z" id="Path" fill="#FEFEFE"></path>
            <path d="M431.744854,815.556914 C433.501641,815.054795 433.566668,814.812393 434.943779,813.55998 C434.93906,813.490723 434.341228,810.489551 434.066435,811.216758 C437.725271,801.514893 437.146318,791.755312 440.897452,782.082305 C441.627437,797.8096 446.724741,811.309102 457.463168,821.859375 C462.446675,827.082568 468.044795,831.688213 473.283691,836.46123 C479.72874,842.336602 487.483251,843.202324 493.85226,846.76333 C509.246435,855.380156 523.05111,858.993105 540.566016,858.381328 C548.84127,858.092754 556.649795,855.183926 564.620889,852.800303 C569.078408,851.565205 576.026895,851.386289 580.243184,850.180049 C592.593135,846.653672 611.152148,839.612461 619.610947,828.571611 C622.164844,825.235693 626.617119,819.089062 629.333584,816.832412 C632.286035,816.924756 631.336846,818.673516 633.329619,820.162559 C633.261445,820.860908 633.030703,821.518857 632.768496,822.165264 C598.141436,906.394307 462.447724,900.559336 431.744854,815.556914 Z" id="Path" fill="#DFE0E1"></path>
            <path d="M655.942354,769.131094 C659.545078,770.614365 660.704033,771.358887 663.666973,773.707881 C668.014365,776.460879 677.029043,773.748281 681.491807,772.865244 C691.686416,770.856768 697.937432,764.819795 706.280859,758.950195 C720.476748,748.953984 736.581504,744.094395 748.580098,730.329404 C755.449922,722.439785 758.365664,713.765244 763.289912,704.686699 L764.039824,705.096475 L764.815957,708.697881 C766.404932,709.604004 765.534404,709.361602 767.574375,709.04417 C750.273955,781.355098 661.149785,824.71626 605.026992,775.88373 C603.889014,774.891035 603.789375,774.983379 602.609443,775.652871 C601.460977,771.306943 599.798584,769.939102 600.627158,765.333457 C601.801846,763.613555 601.712695,763.255723 603.794619,764.704365 C608.105303,767.693994 610.732617,768.351943 615.578203,769.292695 C629.553838,771.999521 642.061113,772.368896 655.942354,769.131094 Z" id="Path" fill="#DFE0E1"></path>
            <path d="M862.839434,640.698252 C864.029854,638.810977 863.306162,639.157266 864.805986,638.851377 C866.762051,641.1946 865.566387,642.545127 867.171094,644.755605 C866.756807,647.410488 866.410693,650.244287 865.687002,652.795283 C856.583174,695.013691 817.655918,729.68877 778.015459,729.215508 C780.847295,722.151211 782.687988,711.266191 783.207158,703.549717 L783.427412,700.64666 C784.004268,705.650537 782.640791,706.302715 785.635195,711.064189 C789.064863,712.766777 791.167764,707.422383 792.625635,704.669385 C790.842627,703.347715 788.87083,701.552783 787.150752,700.069512 C798.897627,698.822871 812.873262,706.002598 816.119385,691.187197 C816.276709,690.477305 825.149795,681.762363 827.34709,681.739277 C828.527021,682.33374 829.061924,682.633857 830.294297,683.014775 C830.367715,682.835859 831.846562,679.10748 831.804609,679.142109 C834.657422,676.625742 838.406982,674.155547 841.327969,671.737295 C843.8504,669.642246 845.439375,667.795371 847.500322,665.440605 C854.155137,657.862646 857.715908,649.24582 862.839434,640.698252 Z" id="Path" fill="#DFE0E1"></path>
            <path d="M862.839434,640.698252 C864.029854,638.810977 863.306162,639.157266 864.805986,638.851377 C866.762051,641.1946 865.566387,642.545127 867.171094,644.755605 C866.756807,647.410488 866.410693,650.244287 865.687002,652.795283 C861.229482,647.329687 865.419551,646.186934 863.930215,640.940654 L862.839434,640.698252 Z" id="Path" fill="#DFDFE0"></path>
            <path d="M227.117962,584.859141 L227.922413,587.629453 L228.84276,585.534404 C229.69703,585.505547 230.376146,585.505547 231.230941,585.534404 C234.698892,582.100371 233.637478,559.05772 239.234024,556.184098 C240.663577,559.352643 238.991221,577.396611 241.586021,584.408965 C246.09808,596.592568 253.89402,599.899629 260.318092,609.763096 C266.863828,619.817021 262.65593,620.440342 273.463579,626.18874 C272.544281,631.879424 272.68902,633.57624 275.690766,638.637832 C278.2111,642.891416 282.574225,645.026865 283.914627,649.615195 C284.009546,649.771025 284.104465,649.921084 284.199384,650.076914 L281.866266,660.927305 C250.014404,653.938037 227.410585,619.949766 227.117962,584.859141 Z" id="Path" fill="#DFE0E1"></path>
            <path d="M880.900254,492.43055 C891.121084,518.133855 887.3925,561.978091 873.348691,585.292002 C869.546689,591.611777 860.149189,606.103975 854.165625,609.728467 L853.237412,608.545312 C852.314443,608.666514 852.015527,608.805029 851.160732,609.174404 L851.019141,607.36793 L850.290205,607.56416 C850.332158,609.087832 850.505215,609.249434 849.786768,610.490303 C843.15293,611.275225 836.330303,611.967803 829.733174,612.839297 C837.510234,602.058164 845.706826,592.119668 853.772314,581.655967 C856.635615,577.944902 857.710664,569.677251 859.897471,566.643182 C864.947578,559.640062 870.957363,553.992665 873.568945,545.076299 C877.176914,533.890585 876.463711,522.673128 876.453223,511.032621 C876.447979,507.551262 875.839658,494.38362 877.559736,491.988454 C878.45124,492.621009 879.295547,493.176226 880.213271,493.768957 L880.900254,492.43055 Z" id="Path" fill="#DFE0E1"></path>
            <path d="M351.794259,714.17502 C351.237855,711.710596 351.74811,710.313896 351.875019,707.866787 C350.305447,707.560898 346.075523,708.61708 344.445645,709.101885 L343.992551,708.570908 C354.972732,703.56126 355.835394,708.507422 359.208949,717.003047 C359.532513,717.816826 366.212499,727.738008 367.31272,729.163564 L366.944057,729.452139 C364.317791,726.860742 361.612339,723.50751 360.083147,719.986904 C359.117177,721.302803 359.279745,721.308574 358.714427,722.976533 L358.196306,722.387842 C359.003903,719.652158 360.113563,717.372422 357.207261,715.387031 L356.131687,715.525547 C354.060776,718.867236 355.884164,725.56793 358.005419,728.303613 L359.317503,726.895371 L359.676727,727.432119 C358.72911,729.607969 358.550285,729.163564 358.772112,731.177813 L360.245716,730.866152 C361.431416,733.342119 359.791049,732.863086 361.193332,735.541055 C363.179812,739.33292 371.266802,748.105576 371.75136,751.799326 C364.038278,744.919717 357.807715,733.088174 354.859983,722.832246 C353.958516,719.692559 353.569925,716.529785 351.794259,714.17502 Z" id="Path" fill="#DFE0E1"></path>
            <path d="M191.045616,337.229563 C202.268602,307.396184 223.832508,283.715783 250.964643,271.42887 C271.240588,262.133895 296.830421,258.860886 317.973223,266.267432 C276.977153,282.902004 245.125816,333.419807 264.576334,380.986072 C207.663773,393.723738 176.143866,482.048804 225.291952,523.811265 C211.180494,546.78639 206.684692,577.58707 211.216679,604.718818 C217.40424,641.765977 245.510212,674.149775 281.010422,675.229043 C281.930244,696.964453 293.511929,719.900332 308.071761,734.213613 C323.841416,749.71582 338.057232,754.708154 358.744318,755.048672 C373.306772,776.962998 392.989605,789.787236 418.245911,786.035771 C415.917513,800.02585 415.915939,805.341387 417.913957,819.487295 C414.168592,822.973271 411.23869,827.388457 407.215386,831.09375 C382.829083,853.562139 347.53759,857.123145 322.021699,834.839443 C317.136258,831.099521 310.055095,821.420742 307.901851,820.699307 L307.73194,821.057139 C307.465014,831.191865 317.392696,842.804092 323.932664,848.93918 C278.973073,878.039004 231.750111,866.59415 201.201419,819.752783 C189.824256,802.305586 180.72305,771.087627 184.018992,749.565762 L184.43695,748.423008 C185.78417,749.877422 188.127776,755.568105 189.119443,757.778584 C189.491777,758.101787 192.474645,762.58623 193.021084,763.336523 C197.727176,769.812129 202.683938,774.625547 208.843705,779.352393 C207.325002,776.651338 205.320167,773.598223 203.665641,770.954883 C185.968239,742.691924 183.401757,709.771377 197.823668,678.87085 C199.490256,675.742705 201.021021,672.603018 203.144897,669.844248 C207.081149,662.029658 214.718716,657.21624 219.97754,650.636748 C210.77722,653.603291 205.705087,659.553691 198.879838,666.66416 C197.671063,668.268633 196.042233,670.294424 194.938866,671.916211 C194.204162,673.076279 188.167632,683.078262 188.059078,683.205234 L185.035307,690.812051 C180.921278,702.054902 179.48753,710.256182 179.477042,722.584072 C175.991786,726.601025 173.003675,732.863086 171.058099,737.993936 C135.600366,714.250049 117.478189,672.891592 125.81008,627.718184 C128.985932,613.335645 133.989891,600.534492 142.451836,588.916494 C145.086492,590.122734 147.509285,591.300117 150.247775,592.212012 C150.798935,603.962754 153.996287,612.53918 161.360634,621.242578 C163.460388,623.718545 166.836565,626.77166 168.63111,628.964824 C172.848973,625.426904 168.212628,619.857422 165.823922,615.551895 C158.263969,601.936963 158.143354,583.849131 163.236987,569.228807 C165.375023,563.955979 166.768916,560.677198 169.946865,555.702179 C172.205517,552.165413 175.312146,547.899132 178.001341,544.548785 C178.084723,543.886219 178.168629,543.223652 178.252011,542.560509 C177.83615,542.706527 176.729112,543.113417 176.421281,543.314842 C162.626569,552.319512 156.650871,559.468072 151.410401,575.22711 C133.39101,560.382853 122.960414,538.619739 122.845497,513.674229 C122.800992,503.85982 125.321851,485.541706 130.208341,477.178825 C140.120291,443.417373 176.493126,415.598241 207.645943,414.320435 C209.246455,414.25464 213.451731,414.087267 214.563489,413.158058 C213.902728,411.385058 213.572347,411.593985 211.878489,410.249229 C202.606324,407.640519 196.526792,406.736127 186.98298,407.100308 C182.445226,386.039584 181.471389,368.699159 187.605984,347.503383 L190.024058,339.86944 L191.045616,337.229563 Z" id="Path" fill="#FEFEFE"></path>
            <path d="M197.823668,678.87085 L198.842604,680.134805 C199.420509,679.292168 199.57626,679.003594 200.066062,678.114785 L200.640296,677.849297 C200.632954,680.677324 199.363872,678.657305 199.805953,681.779678 C201.390208,682.870488 201.40594,682.391455 202.884264,683.020547 C202.937229,683.34375 202.99911,683.672725 203.042637,684.001699 C203.59904,688.20334 199.528538,703.220742 199.53588,710.87373 C199.544795,720.858398 199.833223,731.374043 202.429072,741.00665 C205.739174,753.288369 229.516632,798.582979 238.006896,806.057051 C248.830802,815.58 260.349032,817.767393 273.958626,815.857031 C278.453903,815.227939 287.824658,811.003213 290.483962,811.130186 C292.234456,812.861631 292.393354,815.025938 292.972831,817.703906 C287.571891,827.348057 285.679805,825.37998 278.567177,830.862891 C287.62643,831.815186 296.890204,830.533916 305.577123,825.905186 C306.006618,825.680098 307.394742,821.894004 307.73194,821.057139 C307.465014,831.191865 317.392696,842.804092 323.932664,848.93918 C278.973073,878.039004 231.750111,866.59415 201.201419,819.752783 C189.824256,802.305586 180.72305,771.087627 184.018992,749.565762 L184.43695,748.423008 C185.78417,749.877422 188.127776,755.568105 189.119443,757.778584 C189.491777,758.101787 192.474645,762.58623 193.021084,763.336523 C197.727176,769.812129 202.683937,774.625547 208.843705,779.352393 C207.325002,776.651338 205.320167,773.598223 203.665641,770.954883 C185.968239,742.691924 183.401757,709.771377 197.823668,678.87085 Z" id="Path" fill="#DFE0E1"></path>
            <path d="M184.018992,749.565762 L184.43695,748.423008 C185.78417,749.877422 188.127776,755.568105 189.119443,757.778584 C188.41568,758.315332 188.83154,758.101787 187.833056,758.303789 L186.99242,756.404971 L186.165419,756.301084 L184.569627,759.065625 L184.018992,749.565762 Z" id="Path" fill="#FEFEFE"></path>
            <path d="M125.81008,627.718184 L126.064421,630.834785 L126.531149,630.921357 C129.670292,628.104873 130.904238,621.975557 132.879182,621.531152 L133.260955,622.368018 L133.879239,620.584629 L134.492804,620.936689 C134.673202,622.991338 134.57671,627.591211 134.897651,628.762822 C135.457201,630.805928 136.49659,632.116055 136.964367,634.85751 C137.449975,637.708623 136.924512,643.728281 137.330933,645.990703 C139.390307,657.458643 144.58725,671.466035 152.966862,679.015137 C162.026115,687.176016 168.520459,686.500752 179.006643,685.883203 C181.300954,688.520771 181.899311,689.859756 185.035307,690.812051 C180.921278,702.054902 179.48753,710.256182 179.477042,722.584072 C175.991786,726.601025 173.003675,732.863086 171.058099,737.993936 C135.600366,714.250049 117.478189,672.891592 125.81008,627.718184 Z" id="Path" fill="#DFE0E1"></path>
            <path d="M130.208341,477.178825 L131.011743,478.124194 C132.251982,477.26078 133.916997,476.020488 135.183457,475.313481 C137.304712,474.129173 138.291135,471.041429 140.486332,470.68706 C139.840254,474.223248 138.080845,478.737126 137.003174,482.337955 C132.632707,496.937502 132.956271,508.730953 140.57758,521.966698 C142.944261,526.077149 146.530204,530.206069 149.083052,534.266886 C150.497921,536.517765 150.893329,539.728441 152.661129,541.354269 C154.837972,540.652456 155.067665,536.494102 158.524603,535.100288 C164.24124,532.795157 172.458284,528.406521 178.502681,528.917874 C181.235927,531.380566 176.341046,535.354811 176.853398,540.962385 C177.461719,541.752501 177.519404,541.927954 178.252011,542.560509 C177.83615,542.706527 176.729112,543.113417 176.421281,543.314842 C162.626569,552.319512 156.650871,559.468072 151.410401,575.22711 C133.39101,560.382853 122.960414,538.619739 122.846092,513.674229 C122.800992,503.85982 125.321851,485.541706 130.208341,477.178825 Z" id="Path" fill="#DFE0E1"></path>
            <path d="M191.045616,337.229563 L191.791857,338.06816 C197.46864,339.552009 196.666811,336.444064 199.621884,337.406171 C200.10382,339.056815 198.850471,348.044171 198.484954,348.97338 C198.210686,351.288322 197.959491,353.890107 197.559888,356.158301 C197.203811,359.984218 195.468,364.586977 194.761614,369.53891 C196.758583,376.382159 199.233293,382.004739 201.037802,388.112124 C205.205845,390.151189 206.948997,391.908029 210.312589,395.133135 C220.372424,404.779017 213.645765,404.342115 211.878489,410.249229 C202.606324,407.640519 196.526792,406.736127 186.98298,407.100308 C182.445226,386.039584 181.471389,368.699159 187.605984,347.503383 L190.024058,339.86944 L191.045616,337.229563 Z" id="Path" fill="#DFE0E1"></path>
            <path d="M187.605984,347.503383 L190.024058,339.86944 C190.960661,339.989487 191.335617,339.991796 192.242329,340.267096 C192.39808,343.293662 190.886719,343.295971 190.986357,343.993743 C191.688548,348.907008 194.252408,347.748094 191.030933,351.816413 L190.349719,351.589017 L190.025106,350.843918 L189.473947,350.592281 L188.235281,352.776788 C187.697232,351.320643 187.974123,350.097088 188.116239,348.503004 L187.605984,347.503383 Z" id="Path" fill="#DFE0E1"></path>
            <path d="M197.559888,356.158301 C196.192216,354.054595 195.953083,348.98146 197.255728,346.758861 C198.523236,347.757905 198.022945,347.117848 198.484954,348.97338 C198.210686,351.288322 197.959491,353.890107 197.559888,356.158301 Z" id="Path" fill="#DFDFE0"></path>
            <path d="M163.236987,569.228807 L163.969069,570.269405 C165.536019,569.14108 167.733838,567.264193 169.479088,566.975042 L170.219561,567.658386 C169.634314,571.474491 168.160187,580.6171 168.236227,584.160791 C168.503678,596.621426 172.328229,611.096309 177.027504,622.500762 C178.204813,625.357646 180.853104,630.782842 182.192982,633.968701 C181.999998,634.361162 181.807538,634.753623 181.614554,635.146084 C177.358409,637.662451 168.761689,635.122998 168.63111,628.964824 C172.848973,625.426904 168.212628,619.857422 165.823922,615.551895 C158.263969,601.936963 158.143354,583.849131 163.236987,569.228807 Z" id="Path" fill="#DFE0E1"></path>
            <path d="M187.56036,665.001973 C189.21174,664.40751 190.224384,663.772646 191.823322,664.372881 C192.000574,664.626826 194.721234,671.292891 194.938866,671.916211 C194.204162,673.076279 188.167632,683.078262 188.059078,683.205234 L187.60546,682.356826 C186.469055,682.893574 187.017592,682.547285 185.975057,683.424551 C185.374078,681.837393 187.252005,680.694639 186.984029,679.326797 C186.014912,674.369092 181.627664,668.493721 187.56036,665.001973 Z" id="Path" fill="#DFE0E1"></path>
            <path d="M197.823668,678.87085 C199.490256,675.742705 201.021021,672.603018 203.144897,669.844248 C210.336712,671.027402 203.814574,679.580742 202.884264,683.020547 C201.40594,682.391455 201.390208,682.870488 199.805953,681.779678 C199.363872,678.657305 200.632954,680.677324 200.640296,677.849297 L200.066063,678.114785 C199.57626,679.003594 199.420509,679.292168 198.842604,680.134805 L197.823668,678.87085 Z" id="Path" fill="#DFDFE0"></path>
            <path d="M187.56036,665.001973 C192.681264,660.586787 193.539729,664.799971 198.879838,666.66416 C197.671063,668.268633 196.042233,670.294424 194.938866,671.916211 C194.721234,671.292891 192.000574,664.626826 191.823322,664.372881 C190.224384,663.772646 189.21174,664.40751 187.56036,665.001973 Z" id="Path" fill="#DFDFE0"></path>
            <path d="M902.411719,498.5085 C920.530225,500.39289 933.25251,506.558566 945.046582,522.145037 C946.499209,524.027695 947.846953,525.997503 949.095059,528.046957 C973.128955,566.939836 966.311572,614.657314 931.191562,642.123809 C925.318125,646.712139 915.170713,652.246992 907.876113,652.304707 C902.600508,652.414365 901.132148,651.894932 895.867031,650.52709 C899.558906,654.047695 903.801416,657.995391 908.72042,659.086201 C912.868535,659.66335 915.055342,659.836494 919.234922,659.85958 C928.03459,672.799248 931.259736,690.14833 931.920498,705.950654 C933.630088,747.049395 912.732187,788.321279 875.640381,800.383682 C872.598779,801.376377 869.378877,802.16707 866.263857,802.975078 C865.246494,797.930801 857.018437,774.042627 851.265615,776.749453 C851.554043,780.668291 853.536328,783.721406 854.191846,787.224697 C868.020645,861.399814 803.134893,920.984619 740.472656,924.257051 C716.543643,925.509463 687.496348,921.117363 667.663008,905.182295 C679.184385,899.791729 688.954219,890.46501 694.0725,877.536885 C694.869609,875.516865 696.14918,871.713457 695.488418,869.629951 L694.916807,869.612637 C691.156758,874.616514 687.72709,879.245244 683.059805,883.267969 C662.361182,901.11917 630.859629,902.573584 610.344551,883.602715 C609.007295,882.344531 607.691016,881.05749 606.406201,879.730049 L616.155059,871.245967 L617.324502,869.930068 C633.502676,851.634463 641.269248,835.191504 640.959844,809.560342 C698.676855,823.209902 745.947539,797.180508 774.244922,740.729619 C781.602451,742.576494 789.840996,742.455293 797.313896,741.497227 C850.830352,734.681104 899.113154,666.571816 873.757734,608.522227 C879.075293,603.974297 883.768799,597.954639 887.507871,591.825322 C904.11082,564.591419 907.01083,535.03507 901.478262,503.448313 C901.614609,500.981004 901.18459,499.745329 902.411719,498.5085 Z" id="Path" fill="#FEFEFE"></path>
            <path d="M908.72042,659.086201 C912.868535,659.66335 915.055342,659.836494 919.234922,659.85958 C928.03459,672.799248 931.259736,690.14833 931.920498,705.950654 C933.630088,747.049395 912.732187,788.321279 875.640381,800.383682 C872.598779,801.376377 869.378877,802.16707 866.263857,802.975078 C865.246494,797.930801 857.018437,774.042627 851.265615,776.749453 C851.554043,780.668291 853.536328,783.721406 854.191846,787.224697 C868.020645,861.399814 803.134893,920.984619 740.472656,924.257051 C716.543643,925.509463 687.496348,921.117363 667.663008,905.182295 C679.184385,899.791729 688.954219,890.46501 694.0725,877.536885 C694.869609,875.516865 696.14918,871.713457 695.488418,869.629951 L694.916807,869.612637 C691.156758,874.616514 687.72709,879.245244 683.059805,883.267969 C662.361182,901.11917 630.859629,902.573584 610.344551,883.602715 C609.007295,882.344531 607.691016,881.05749 606.406201,879.730049 L616.155059,871.245967 C622.725967,874.749258 622.788896,874.091309 627.335566,869.479893 C633.303398,871.124766 638.704863,876.942422 641.688779,878.004375 C650.651016,881.196006 669.220518,878.52958 678.41874,875.464922 C681.853652,874.322168 684.97916,872.417578 688.109912,870.951621 C691.922402,869.174004 694.43959,865.393682 697.764375,862.028906 C697.297646,865.653398 696.212109,870.922764 696.736523,874.264453 L698.592949,873.808506 C708.006182,876.653848 700.087529,895.4054 716.67999,894.753223 C718.405313,894.683965 722.841855,897.46582 724.934268,895.705518 C723.187969,893.42001 718.247988,891.907881 715.872393,889.379971 C712.720664,886.020967 707.681045,880.295654 711.760986,875.591895 C715.049062,874.743486 725.007686,882.69082 729.28166,884.618496 C762.293525,899.543555 813.780498,862.986973 826.2196,830.303057 C828.731543,827.180684 829.963916,818.73123 831.164824,816.878584 L832.093037,818.465742 L833.299189,818.581172 C833.000273,822.18835 832.743311,823.838994 832.124502,827.20377 C831.495205,830.632031 827.944922,840.212695 828.296279,842.711748 C834.353262,839.84332 838.464668,821.120625 839.592158,814.893193 C839.681309,816.376465 839.565937,818.569629 840.179502,819.608496 L840.814043,810.068232 L841.616396,812.549971 L842.193252,812.601914 C845.780244,805.768477 845.10375,772.819072 843.074268,764.231104 C841.805186,758.869395 834.201182,750.812402 835.166104,746.541504 C838.97335,744.937031 847.185674,751.568467 851.302324,753.219111 C853.420957,753.040195 855.534346,751.46458 857.464189,750.304512 C865.39333,753.877061 868.38249,760.352666 878.917969,757.33418 C886.280742,755.146787 892.772988,750.316055 897.366855,743.60959 C898.489102,741.941631 900.670664,738.01125 901.630342,736.822324 C903.712266,734.230928 906.27665,732.920801 908.127832,729.498311 C916.974697,713.188096 918.78917,693.622764 914.882285,675.286758 C914.148105,671.841182 911.49457,664.113164 910.64502,660.298213 C909.91084,659.836494 909.265811,659.43249 908.72042,659.086201 Z" id="Path" fill="#DFE0E1"></path>
            <path d="M949.095059,528.046957 C973.128955,566.939836 966.311572,614.657314 931.191562,642.123809 C925.318125,646.712139 915.170713,652.246992 907.876113,652.304707 L908.13832,651.606357 L907.718789,651.300469 C907.493291,649.695996 907.718789,650.024971 907.026562,648.73793 C905.280264,649.199648 905.888584,649.274678 904.252412,648.957246 C904.032158,648.241582 904.121309,648.714844 904.2629,647.514375 L906.192744,647.352773 L906.392021,646.729453 C904.913174,646.21002 905.322217,646.712139 904.776826,645.546299 C906.218965,634.667051 896.302295,633.859043 892.30626,627.845156 C893.145322,625.980967 902.306836,624.999814 904.703408,624.491924 C908.851523,623.649287 912.852803,622.085215 916.555166,619.845879 C929.067686,612.360264 936.378018,598.560645 940.368809,583.906846 C940.956152,585.355488 941.045303,585.857607 942.052178,586.99459 C942.272432,586.781045 942.492686,586.573271 942.718184,586.359727 C948.245508,572.932368 950.002295,557.995189 946.116387,543.796184 C944.87877,539.286346 943.415654,536.221687 943.426143,533.234944 C944.354355,531.261097 947.427422,529.634115 949.095059,528.046957 Z" id="Path" fill="#DFE0E1"></path>
            <path d="M923.70293,621.854355 C923.912695,622.056357 924.127705,622.252588 924.342715,622.448818 C923.236201,624.676611 920.86585,627.23915 919.24541,629.178369 C916.19332,629.10334 913.398193,629.14374 910.351348,629.21877 L909.669609,628.595449 C910.508672,627.516182 921.851748,622.737393 923.70293,621.854355 Z" id="Path" fill="#FEFEFE"></path>
            <path d="M832.78002,802.703818 C832.633184,787.31127 820.582148,765.114141 810.41376,755.0429 C807.020801,751.683896 803.066719,748.070947 799.537412,744.827373 L799.962188,744.198281 C812.826064,749.813936 829.392305,767.526621 834.484365,781.938018 C839.114941,795.033516 839.660332,801.249404 839.592158,814.893193 C838.464668,821.120625 834.353262,839.84332 828.296279,842.711748 C827.944922,840.212695 831.495205,830.632031 832.124502,827.20377 C832.743311,823.838994 833.000273,822.18835 833.299189,818.581172 C833.702988,812.878945 833.519443,808.325244 832.78002,802.703818 Z" id="Path" fill="#050505"></path>
            <path d="M832.78002,802.703818 C833.519443,808.325244 833.702988,812.878945 833.299189,818.581172 L832.093037,818.465742 L831.164824,816.878584 C829.963916,818.73123 828.731543,827.180684 826.2196,830.303106 C826.2196,830.337686 830.089775,811.961279 830.435889,811.447617 L832.030107,811.788135 C832.722334,810.426064 832.622695,804.943154 832.78002,802.703818 Z" id="Path" fill="#DFDFE0"></path>
            <path d="M420.051993,824.975977 C442.551454,900.513164 539.816104,922.133145 597.606533,885.109072 C604.806738,897.315762 618.986895,907.363916 631.903213,910.324687 C635.427275,911.103838 638.993291,911.646357 642.575039,911.952246 C648.076143,911.761787 654.421553,911.196182 659.576543,909.060732 C666.315264,918.525967 670.243125,921.821484 679.341709,928.579893 C668.439141,940.082461 657.415957,948.000937 643.052256,953.518477 C618.289424,963.029883 586.840312,962.071816 563.11582,949.25335 C568.727051,942.391055 580.473926,919.103115 577.421836,910.168857 L576.771562,910.030342 C575.360889,911.756016 571.773896,918.912656 570.462861,921.515596 C565.286895,931.684951 555.779268,941.992822 547.073994,948.479971 C490.060222,990.940781 392.025208,974.60748 360.616477,902.787129 C358.128656,897.096445 354.748808,879.995537 352.966849,877.646543 C351.907008,883.123682 351.824675,887.169492 351.96312,892.727432 C353.744555,910.422803 358.342617,924.089678 368.763249,937.721924 C336.347643,936.094365 302.195177,913.862607 290.358627,879.65502 C294.735387,878.673867 303.943049,874.160566 308.330297,872.002031 C316.764448,866.017002 322.384594,862.138564 329.21194,853.925742 C355.935557,872.694609 388.130909,865.330195 409.558992,840.322354 C413.58859,835.624365 416.819505,830.355 420.051993,824.975977 Z" id="Path" fill="#FEFEFE"></path>
            <path d="M352.966849,877.646543 C352.826306,876.036299 352.676848,874.304854 353.168224,872.729238 L354.271066,872.094375 C355.847979,874.022051 355.313602,877.738887 355.202426,880.359141 C359.524122,883.360312 363.278927,890.407295 366.8827,894.903281 C396.113016,931.390605 443.811621,949.530381 487.08994,938.801191 C501.740496,935.170928 513.752725,929.376357 526.176094,920.003467 C530.937773,916.523262 534.199629,917.204297 538.95082,911.958018 C543.780674,911.098066 541.017012,921.348223 548.306367,921.821484 C554.594092,922.23126 574.333037,908.068037 577.264512,908.425869 C581.402139,912.437051 584.601064,919.697578 587.789502,923.829961 C593.547568,931.286719 608.440928,935.026641 616.957412,934.507207 C627.964863,933.837715 635.479717,927.212051 642.428203,918.502881 C643.48752,917.175439 645.406875,914.791816 645.779209,913.204658 C644.609766,912.540937 644.358047,912.62751 643.031279,912.442822 L642.575039,911.952246 C648.076143,911.761787 654.421553,911.196182 659.576543,909.060732 C666.315264,918.525967 670.243125,921.821484 679.341709,928.579893 C668.439141,940.082461 657.415957,948.000937 643.052256,953.518477 C618.289424,963.029883 586.840312,962.071816 563.11582,949.25335 C568.727051,942.391055 580.473926,919.103115 577.421836,910.168857 L576.771562,910.030342 C575.360889,911.756016 571.773896,918.912656 570.462861,921.515596 C565.286895,931.684951 555.779268,941.992822 547.073994,948.479971 C490.060222,990.940781 392.025208,974.60748 360.616477,902.787129 C358.128656,897.096445 354.748808,879.995537 352.966849,877.646543 Z" id="Path" fill="#DFE0E1"></path>
            <path d="M308.330297,872.002031 C309.638186,874.882002 312.930457,875.193662 315.048565,877.917803 C317.129965,880.59 318.055031,885.357246 319.670227,887.994814 C326.568894,899.266523 340.24299,898.256514 350.907475,896.825186 C351.85142,896.698213 351.916972,893.443096 351.96312,892.727432 C353.744555,910.422803 358.342617,924.089678 368.763249,937.721924 C336.347643,936.094365 302.195177,913.862607 290.358627,879.65502 C294.735387,878.673867 303.943049,874.160566 308.330297,872.002031 Z" id="Path" fill="#DFE0E1"></path>
            <path d="M777.39665,320.616346 C783.023613,319.86663 788.446055,319.074205 794.298516,318.684053 C819.008906,317.035717 840.473174,334.429816 850.416064,358.660816 C852.052236,362.649489 854.165625,378.241154 855.08335,379.154203 L855.90668,378.997219 C858.07251,376.188814 857.668711,366.421154 857.469434,362.735484 C856.813916,350.314096 851.255127,335.133938 842.518389,326.914767 C877.90585,326.170245 912.213018,350.717522 927.620303,385.479173 C940.174775,409.596475 943.515293,440.259794 936.949629,467.112779 C934.416709,477.462205 930.163711,485.470717 925.485937,494.714326 C921.086104,493.855529 903.701777,492.697192 902.411719,498.5085 C901.18459,499.745329 901.614609,500.981004 901.478262,503.448313 C899.868311,494.983277 897.975176,490.016338 895.578604,481.886625 C892.495049,474.423519 889.081113,466.461179 885.132275,459.557329 C863.201279,421.241021 826.707305,389.880507 784.040977,391.638501 C789.070107,363.389394 787.176973,347.149591 777.39665,320.616346 Z" id="Path" fill="#FEFEFE"></path>
            <path d="M927.620303,385.479173 C940.174775,409.596475 943.515293,440.259794 936.949629,467.112779 C934.416709,477.462205 930.163711,485.470717 925.485937,494.714326 C921.086104,493.855529 903.701777,492.697192 902.411719,498.5085 C901.18459,499.745329 901.614609,500.981004 901.478262,503.448313 C899.868311,494.983277 897.975176,490.016338 895.578604,481.886625 C899.024004,476.456812 897.587109,474.735179 903.95874,470.070088 C906.297627,466.444441 903.061992,466.528705 904.252412,462.44134 C914.116641,459.022312 916.523701,443.28636 918.264756,433.738594 C920.771455,431.53735 921.600029,430.465585 923.655732,427.885731 C924.914326,428.676425 925.428252,432.131235 926.157187,434.343445 L926.833682,434.468687 C930.515068,429.319368 924.185391,402.314016 922.90582,395.6947 C924.101484,396.00232 924.74127,396.335335 925.874004,396.82418 C926.125723,396.702401 926.372197,396.580046 926.623916,396.458268 C926.838926,391.989407 925.879248,389.437834 927.620303,385.479173 Z" id="Path" fill="#DFE0E1"></path>
            <path d="M903.95874,470.070088 C904.079355,468.029291 904.226191,467.785157 903.586406,465.834973 L902.621484,465.391146 C900.555293,466.411544 897.697236,468.233602 895.940449,465.851133 C896.884395,464.72223 902.458916,463.161621 904.252412,462.44134 C903.061992,466.528705 906.297627,466.444441 903.95874,470.070088 Z" id="Path" fill="#DFDFE0"></path>
            <path d="M734.829961,234.542159 C757.059873,231.27723 787.192705,240.163585 804.912656,255.12385 C825.406758,272.429646 834.091055,286.236768 838.055625,313.622461 L837.211318,314.10842 C834.536807,315.621126 834.337529,315.654023 832.187432,318.055538 C821.284863,311.069156 813.004365,310.042409 800.539043,310.683044 C791.220205,311.979319 785.252373,314.746169 777.165908,320.300068 C765.95918,291.098089 737.499229,262.997886 710.61252,252.299862 C705.835107,250.398735 700.653896,249.136512 695.703428,247.830425 C706.7371,239.10394 721.567529,235.852863 734.829961,234.542159 Z" id="Path" fill="#FEFEFE"></path>
            <path d="M411.41332,206.904252 C426.8699,206.302286 444.876706,209.595495 457.489913,220.04015 C449.647301,230.677573 443.354856,244.807321 443.541023,258.736222 C442.328054,259.772203 426.559447,264.310321 423.141316,265.722604 C415.955795,268.727238 409.144705,272.719951 402.870615,277.60609 C400.267948,274.507957 399.28205,273.698218 396.188531,271.180119 C380.223794,258.935338 360.67154,258.337989 342.119344,259.336456 C345.0676,252.40144 347.523431,245.237874 352.013464,239.274776 C368.608022,217.234632 387.068971,210.393114 411.41332,206.904252 Z" id="Path" fill="#FEFEFE"></path>
            <path d="M217.314041,454.933793 C221.059931,433.014272 232.532013,413.614582 249.22621,400.968683 C260.642704,392.220267 270.186516,389.007281 283.8496,388.317589 C258.197886,414.657489 248.114977,448.797551 264.979084,484.228693 C255.567949,489.294325 249.807261,494.455187 241.856095,501.991014 C240.789961,503.52796 235.254771,509.605333 233.228435,512.24117 C218.871551,495.281086 213.537735,478.002416 217.314041,454.933793 Z" id="Path" fill="#FEFEFE"></path>
            <path d="M217.314041,454.933793 L218.02672,455.976123 C227.131072,457.101563 230.46687,481.33718 238.932486,486.705237 C246.948155,491.788761 241.391988,493.030784 240.518314,500.728213 C241.251445,501.830566 240.795729,501.422522 241.856095,501.991014 C240.789961,503.52796 235.254771,509.605333 233.228435,512.24117 C218.871551,495.281086 213.537735,478.002416 217.314041,454.933793 Z" id="Path" fill="#DFE0E1"></path>
        </g>
    </g>
</svg>